<svg width="176" height="63" viewBox="0 0 176 63" fill="none" xmlns="http://www.w3.org/2000/svg">
<rect x="1" y="1" width="174" height="61" rx="29" fill="#222527" style="mix-blend-mode:color-dodge"/>
<rect x="1" y="1" width="174" height="61" rx="29" stroke="#879E14" stroke-width="2"/>
<path d="M26.435 43.32C25.1337 43.32 23.9283 42.9893 22.819 42.328C21.7097 41.6453 20.8457 40.792 20.227 39.768V43H18.275V19.64H20.451V29.816C21.1977 28.6853 22.0937 27.7787 23.139 27.096C24.1843 26.392 25.4003 26.04 26.787 26.04C27.9603 26.04 29.0057 26.2853 29.923 26.776C30.8617 27.2667 31.6617 27.928 32.323 28.76C32.9843 29.5707 33.4857 30.4987 33.827 31.544C34.1683 32.568 34.339 33.624 34.339 34.712C34.339 35.8853 34.1363 36.984 33.731 38.008C33.347 39.032 32.7923 39.9493 32.067 40.76C31.3417 41.5493 30.499 42.1787 29.539 42.648C28.6003 43.096 27.5657 43.32 26.435 43.32ZM25.923 41.4C26.819 41.4 27.651 41.2187 28.419 40.856C29.187 40.4933 29.8483 39.992 30.403 39.352C30.9577 38.712 31.3843 37.9973 31.683 37.208C31.9817 36.3973 32.131 35.5653 32.131 34.712C32.131 33.5387 31.875 32.44 31.363 31.416C30.8723 30.3707 30.179 29.5387 29.283 28.92C28.4083 28.28 27.3737 27.96 26.179 27.96C25.3257 27.96 24.5257 28.152 23.779 28.536C23.0537 28.92 22.403 29.432 21.827 30.072C21.2723 30.6907 20.8137 31.3733 20.451 32.12V37.304C20.5363 37.88 20.7603 38.424 21.123 38.936C21.4857 39.4267 21.9337 39.8533 22.467 40.216C23.0217 40.5787 23.5977 40.8667 24.195 41.08C24.7923 41.2933 25.3683 41.4 25.923 41.4ZM38.4225 48.12C38.7212 48.1413 39.0092 48.152 39.2865 48.152C39.5638 48.1733 39.7665 48.1627 39.8945 48.12C40.1505 48.0773 40.3958 47.928 40.6305 47.672C40.8652 47.416 41.1425 46.9253 41.4625 46.2C41.7825 45.4747 42.2305 44.408 42.8065 43L35.5425 26.328H37.8465L43.9585 40.76L49.5905 26.328H51.7665L43.1265 47.832C42.9772 48.2373 42.7532 48.6107 42.4545 48.952C42.1558 49.3147 41.7825 49.592 41.3345 49.784C40.9078 49.9973 40.3745 50.1147 39.7345 50.136C39.5425 50.1573 39.3398 50.1573 39.1265 50.136C38.9345 50.136 38.6998 50.1147 38.4225 50.072V48.12ZM61.4125 43.32C60.2178 43.32 59.1085 43.096 58.0845 42.648C57.0605 42.1787 56.1752 41.5493 55.4285 40.76C54.6818 39.9493 54.0952 39.0213 53.6685 37.976C53.2632 36.9307 53.0605 35.8107 53.0605 34.616C53.0605 33.0587 53.4125 31.6293 54.1165 30.328C54.8418 29.0267 55.8338 27.992 57.0925 27.224C58.3512 26.4347 59.7805 26.04 61.3805 26.04C63.0232 26.04 64.4525 26.4347 65.6685 27.224C66.9058 28.0133 67.8765 29.0587 68.5805 30.36C69.2845 31.64 69.6365 33.048 69.6365 34.584C69.6365 34.7547 69.6365 34.9253 69.6365 35.096C69.6365 35.2453 69.6258 35.3627 69.6045 35.448H55.3325C55.4392 36.6427 55.7698 37.7093 56.3245 38.648C56.9005 39.5653 57.6365 40.3013 58.5325 40.856C59.4498 41.3893 60.4418 41.656 61.5085 41.656C62.5965 41.656 63.6205 41.3787 64.5805 40.824C65.5618 40.2693 66.2445 39.544 66.6285 38.648L68.5165 39.16C68.1752 39.9493 67.6525 40.664 66.9485 41.304C66.2445 41.944 65.4125 42.4453 64.4525 42.808C63.5138 43.1493 62.5005 43.32 61.4125 43.32ZM55.2685 33.88H67.5885C67.5032 32.664 67.1725 31.5973 66.5965 30.68C66.0418 29.7627 65.3058 29.048 64.3885 28.536C63.4925 28.0027 62.5005 27.736 61.4125 27.736C60.3245 27.736 59.3325 28.0027 58.4365 28.536C57.5405 29.048 56.8045 29.7733 56.2285 30.712C55.6738 31.6293 55.3538 32.6853 55.2685 33.88ZM80.0755 20.28H81.9635L91.4035 43H89.0355L86.0915 35.896H75.8835L72.9715 43H70.5715L80.0755 20.28ZM85.5795 34.136L81.0035 22.904L76.3635 34.136H85.5795ZM94.6605 43V20.28H96.9005V43H94.6605ZM101.83 43V39.864H103.718V43H101.83ZM107.093 34.712C107.093 33.1333 107.413 31.6933 108.053 30.392C108.714 29.0693 109.621 28.0133 110.773 27.224C111.925 26.4347 113.237 26.04 114.709 26.04C116.095 26.04 117.333 26.4133 118.421 27.16C119.53 27.8853 120.394 28.7707 121.013 29.816V19.64H123.189V40.376C123.189 40.6747 123.253 40.8987 123.381 41.048C123.509 41.176 123.701 41.2507 123.957 41.272V43C123.53 43.064 123.199 43.0853 122.965 43.064C122.517 43.0427 122.122 42.8613 121.781 42.52C121.439 42.1787 121.269 41.8053 121.269 41.4V39.768C120.607 40.856 119.711 41.72 118.581 42.36C117.45 43 116.277 43.32 115.061 43.32C113.909 43.32 112.842 43.0853 111.861 42.616C110.901 42.1467 110.058 41.5067 109.333 40.696C108.629 39.8853 108.074 38.968 107.669 37.944C107.285 36.8987 107.093 35.8213 107.093 34.712ZM121.013 37.272V32.12C120.735 31.352 120.287 30.6587 119.669 30.04C119.05 29.4 118.346 28.8987 117.557 28.536C116.789 28.152 116.021 27.96 115.253 27.96C114.357 27.96 113.546 28.152 112.821 28.536C112.095 28.8987 111.466 29.4 110.933 30.04C110.421 30.68 110.026 31.4053 109.749 32.216C109.471 33.0267 109.333 33.8587 109.333 34.712C109.333 35.608 109.482 36.4613 109.781 37.272C110.101 38.0827 110.549 38.808 111.125 39.448C111.701 40.0667 112.362 40.5467 113.109 40.888C113.855 41.2293 114.666 41.4 115.541 41.4C116.095 41.4 116.671 41.2933 117.269 41.08C117.866 40.8667 118.431 40.5787 118.965 40.216C119.519 39.832 119.978 39.384 120.341 38.872C120.703 38.36 120.927 37.8267 121.013 37.272ZM135.319 43.32C134.124 43.32 133.015 43.096 131.991 42.648C130.967 42.1787 130.081 41.5493 129.335 40.76C128.588 39.9493 128.001 39.0213 127.575 37.976C127.169 36.9307 126.967 35.8107 126.967 34.616C126.967 33.0587 127.319 31.6293 128.023 30.328C128.748 29.0267 129.74 27.992 130.999 27.224C132.257 26.4347 133.687 26.04 135.287 26.04C136.929 26.04 138.359 26.4347 139.575 27.224C140.812 28.0133 141.783 29.0587 142.487 30.36C143.191 31.64 143.543 33.048 143.543 34.584C143.543 34.7547 143.543 34.9253 143.543 35.096C143.543 35.2453 143.532 35.3627 143.511 35.448H129.239C129.345 36.6427 129.676 37.7093 130.231 38.648C130.807 39.5653 131.543 40.3013 132.439 40.856C133.356 41.3893 134.348 41.656 135.415 41.656C136.503 41.656 137.527 41.3787 138.487 40.824C139.468 40.2693 140.151 39.544 140.535 38.648L142.423 39.16C142.081 39.9493 141.559 40.664 140.855 41.304C140.151 41.944 139.319 42.4453 138.359 42.808C137.42 43.1493 136.407 43.32 135.319 43.32ZM129.175 33.88H141.495C141.409 32.664 141.079 31.5973 140.503 30.68C139.948 29.7627 139.212 29.048 138.295 28.536C137.399 28.0027 136.407 27.736 135.319 27.736C134.231 27.736 133.239 28.0027 132.343 28.536C131.447 29.048 130.711 29.7733 130.135 30.712C129.58 31.6293 129.26 32.6853 129.175 33.88ZM151.423 43L144.671 26.328H146.943L152.639 40.824L158.367 26.328H160.51L153.759 43H151.423Z" fill="white"/>
</svg>
