<svg width="103" height="55" viewBox="0 0 103 55" fill="none" xmlns="http://www.w3.org/2000/svg">
<rect x="1" y="1" width="101" height="53" rx="26.5" fill="#151718"/>
<rect x="1" y="1" width="101" height="53" rx="26.5" stroke="#879E14" stroke-width="2"/>
<path d="M24.5657 37.28C23.4271 37.28 22.3724 36.9907 21.4017 36.412C20.4311 35.8147 19.6751 35.068 19.1337 34.172V37H17.4257V16.56H19.3297V25.464C19.9831 24.4747 20.7671 23.6813 21.6817 23.084C22.5964 22.468 23.6604 22.16 24.8737 22.16C25.9004 22.16 26.8151 22.3747 27.6177 22.804C28.4391 23.2333 29.1391 23.812 29.7177 24.54C30.2964 25.2493 30.7351 26.0613 31.0337 26.976C31.3324 27.872 31.4817 28.796 31.4817 29.748C31.4817 30.7747 31.3044 31.736 30.9497 32.632C30.6137 33.528 30.1284 34.3307 29.4937 35.04C28.8591 35.7307 28.1217 36.2813 27.2817 36.692C26.4604 37.084 25.5551 37.28 24.5657 37.28ZM24.1177 35.6C24.9017 35.6 25.6297 35.4413 26.3017 35.124C26.9737 34.8067 27.5524 34.368 28.0377 33.808C28.5231 33.248 28.8964 32.6227 29.1577 31.932C29.4191 31.2227 29.5497 30.4947 29.5497 29.748C29.5497 28.7213 29.3257 27.76 28.8777 26.864C28.4484 25.9493 27.8417 25.2213 27.0577 24.68C26.2924 24.12 25.3871 23.84 24.3417 23.84C23.5951 23.84 22.8951 24.008 22.2417 24.344C21.6071 24.68 21.0377 25.128 20.5337 25.688C20.0484 26.2293 19.6471 26.8267 19.3297 27.48V32.016C19.4044 32.52 19.6004 32.996 19.9177 33.444C20.2351 33.8733 20.6271 34.2467 21.0937 34.564C21.5791 34.8813 22.0831 35.1333 22.6057 35.32C23.1284 35.5067 23.6324 35.6 24.1177 35.6ZM35.0548 41.48C35.3161 41.4987 35.5681 41.508 35.8108 41.508C36.0535 41.5267 36.2308 41.5173 36.3428 41.48C36.5668 41.4427 36.7815 41.312 36.9868 41.088C37.1921 40.864 37.4348 40.4347 37.7148 39.8C37.9948 39.1653 38.3868 38.232 38.8908 37L32.5348 22.412H34.5508L39.8988 35.04L44.8268 22.412H46.7308L39.1708 41.228C39.0401 41.5827 38.8441 41.9093 38.5828 42.208C38.3215 42.5253 37.9948 42.768 37.6028 42.936C37.2295 43.1227 36.7628 43.2253 36.2028 43.244C36.0348 43.2627 35.8575 43.2627 35.6708 43.244C35.5028 43.244 35.2975 43.2253 35.0548 43.188V41.48ZM55.1711 37.28C54.1257 37.28 53.1551 37.084 52.2591 36.692C51.3631 36.2813 50.5884 35.7307 49.9351 35.04C49.2817 34.3307 48.7684 33.5187 48.3951 32.604C48.0404 31.6893 47.8631 30.7093 47.8631 29.664C47.8631 28.3013 48.1711 27.0507 48.7871 25.912C49.4217 24.7733 50.2897 23.868 51.3911 23.196C52.4924 22.5053 53.7431 22.16 55.1431 22.16C56.5804 22.16 57.8311 22.5053 58.8951 23.196C59.9777 23.8867 60.8271 24.8013 61.4431 25.94C62.0591 27.06 62.3671 28.292 62.3671 29.636C62.3671 29.7853 62.3671 29.9347 62.3671 30.084C62.3671 30.2147 62.3577 30.3173 62.3391 30.392H49.8511C49.9444 31.4373 50.2337 32.3707 50.7191 33.192C51.2231 33.9947 51.8671 34.6387 52.6511 35.124C53.4537 35.5907 54.3217 35.824 55.2551 35.824C56.2071 35.824 57.1031 35.5813 57.9431 35.096C58.8017 34.6107 59.3991 33.976 59.7351 33.192L61.3871 33.64C61.0884 34.3307 60.6311 34.956 60.0151 35.516C59.3991 36.076 58.6711 36.5147 57.8311 36.832C57.0097 37.1307 56.1231 37.28 55.1711 37.28ZM49.7951 29.02H60.5751C60.5004 27.956 60.2111 27.0227 59.7071 26.22C59.2217 25.4173 58.5777 24.792 57.7751 24.344C56.9911 23.8773 56.1231 23.644 55.1711 23.644C54.2191 23.644 53.3511 23.8773 52.5671 24.344C51.7831 24.792 51.1391 25.4267 50.6351 26.248C50.1497 27.0507 49.8697 27.9747 49.7951 29.02ZM71.5012 17.12H73.1532L81.4132 37H79.3412L76.7652 30.784H67.8332L65.2852 37H63.1852L71.5012 17.12ZM76.3172 29.244L72.3132 19.416L68.2532 29.244H76.3172ZM84.263 37V17.12H86.223V37H84.263Z" fill="white"/>
</svg>
