<svg width="49" height="48" viewBox="0 0 49 48" fill="none" xmlns="http://www.w3.org/2000/svg">
<g clip-path="url(#clip0_70_61)">
<path d="M46.4932 21.9994H2.49316C1.38859 21.9994 0.493164 22.8948 0.493164 23.9994C0.493164 25.104 1.38859 25.9994 2.49316 25.9994H46.4932C47.5977 25.9994 48.4932 25.104 48.4932 23.9994C48.4932 22.8948 47.5977 21.9994 46.4932 21.9994Z" fill="#393E41"/>
<path d="M46.4932 8.00061H2.49316C1.38859 8.00061 0.493164 8.89604 0.493164 10.0006C0.493164 11.1052 1.38859 12.0006 2.49316 12.0006H46.4932C47.5977 12.0006 48.4932 11.1052 48.4932 10.0006C48.4932 8.89604 47.5977 8.00061 46.4932 8.00061Z" fill="#393E41"/>
<path d="M46.4932 36H2.49316C1.38859 36 0.493164 36.8954 0.493164 38C0.493164 39.1046 1.38859 40 2.49316 40H46.4932C47.5977 40 48.4932 39.1046 48.4932 38C48.4932 36.8954 47.5977 36 46.4932 36Z" fill="#393E41"/>
</g>
<defs>
<clipPath id="clip0_70_61">
<rect width="48" height="48" fill="white" transform="translate(0.493164)"/>
</clipPath>
</defs>
</svg>
